<svg xmlns="http://www.w3.org/2000/svg" width="260" height="260" viewBox="0 0 260 260" fill="none" stroke="#000" stroke-width="2.4" stroke-linecap="round" stroke-linejoin="round">
  <!-- pointed leaf -->
  <g transform="translate(52 54) rotate(-18)">
    <path d="M0 22 C -9 7 -9 -8 0 -22 C 9 -8 9 7 0 22 Z"/>
    <path d="M0 17 L0 -16"/>
  </g>
  <!-- monstera split leaf -->
  <g transform="translate(188 58) rotate(14)">
    <path d="M0 -24 C 17 -19 22 -2 15 13 C 11 21 2 25 0 25 C -2 25 -11 21 -15 13 C -22 -2 -17 -19 0 -24 Z"/>
    <path d="M0 -15 L0 21 M0 -4 L13 -6 M0 -4 L-13 -6 M0 8 L12 9 M0 8 L-12 9"/>
  </g>
  <!-- rounded leaf -->
  <g transform="translate(126 128) rotate(-36)">
    <path d="M0 24 C -15 13 -15 -13 0 -24 C 15 -13 15 13 0 24 Z"/>
    <path d="M0 20 L0 -20"/>
  </g>
  <!-- two-leaf sprig -->
  <g transform="translate(44 182) rotate(8)">
    <path d="M0 24 L0 -16"/>
    <path d="M0 2 C 10 -3 15 -13 10 -20 C 3 -16 0 -7 0 2 Z"/>
    <path d="M0 -6 C -9 -10 -13 -18 -9 -24 C -3 -20 0 -13 0 -6 Z"/>
  </g>
  <!-- small pointed leaf -->
  <g transform="translate(206 190) rotate(42) scale(0.85)">
    <path d="M0 22 C -9 7 -9 -8 0 -22 C 9 -8 9 7 0 22 Z"/>
    <path d="M0 17 L0 -16"/>
  </g>
  <!-- tiny leaf to break the grid -->
  <g transform="translate(128 214) rotate(20) scale(0.7)">
    <path d="M0 20 C -13 11 -13 -11 0 -20 C 13 -11 13 11 0 20 Z"/>
    <path d="M0 16 L0 -16"/>
  </g>
</svg>
